<?xml version="1.0" encoding="utf-8"?>
<!-- Generator: Adobe Illustrator 19.0.0, SVG Export Plug-In . SVG Version: 6.00 Build 0)  -->
<svg version="1.1" id="图层_1" xmlns="http://www.w3.org/2000/svg" xmlns:xlink="http://www.w3.org/1999/xlink" x="0px" y="0px"
	 viewBox="-293 386.5 23.6 20.5" style="enable-background:new -293 386.5 23.6 20.5;" xml:space="preserve">
<style type="text/css">
	.st0{fill:none;stroke:#FFFFFF;stroke-width:1.5;stroke-linecap:round;stroke-linejoin:round;stroke-miterlimit:10;}
</style>
<g id="XMLID_2551_">
	<path id="XMLID_2977_" class="st0" d="M-277.9,402.9h1.7l0,0h0.1c3.2,0,5.8-2.6,5.8-5.8c0-2.9-2.1-5.3-4.9-5.7
		c-1-2.4-3.4-4.2-6.2-4.2c-3.4,0-6.1,2.5-6.6,5.7c-2.4,0.6-4.1,2.6-4.1,5c0,2.8,2.2,5,5,5c0.1,0,0.2,0,0.2,0l0,0h2"/>
	<polyline id="XMLID_2975_" class="st0" points="-283.9,397.8 -281.3,395.2 -278.7,397.8 	"/>
	<line id="XMLID_2973_" class="st0" x1="-281.3" y1="395.5" x2="-281.3" y2="406.2"/>
</g>
</svg>
